<?xml version="1.0" encoding="UTF-8" standalone="no"?>
<!DOCTYPE svg PUBLIC "-//W3C//DTD SVG 1.1//EN"
 "http://www.w3.org/Graphics/SVG/1.1/DTD/svg11.dtd">
<!-- Generated by graphviz version 10.0.1 (0)
 -->
<!-- Title: G Pages: 1 -->
<svg width="464pt" height="260pt"
 viewBox="0.00 0.00 463.73 260.00" xmlns="http://www.w3.org/2000/svg" xmlns:xlink="http://www.w3.org/1999/xlink">
<g id="graph0" class="graph" transform="scale(1 1) rotate(0) translate(4 256)">
<title>G</title>
<polygon fill="white" stroke="none" points="-4,4 -4,-256 459.73,-256 459.73,4 -4,4"/>
<!-- outer network -->
<g id="node1" class="node">
<title>outer network</title>
<polygon fill="none" stroke="black" points="429.88,-23.56 328.21,-36 226.55,-23.56 226.64,-3.44 429.78,-3.44 429.88,-23.56"/>
<text text-anchor="middle" x="328.21" y="-13.33" font-family="Times,serif" font-size="14.00">outer network</text>
</g>
<!-- proxy -->
<g id="node2" class="node">
<title>proxy</title>
<ellipse fill="none" stroke="black" cx="284.21" cy="-90" rx="39.63" ry="18"/>
<text text-anchor="middle" x="284.21" y="-85.33" font-family="Times,serif" font-size="14.00">proxy</text>
</g>
<!-- proxy&#45;&gt;outer network -->
<g id="edge1" class="edge">
<title>proxy&#45;&gt;outer network</title>
<path fill="none" stroke="black" d="M300.7,-62.77C306.57,-53.43 313,-43.21 318.16,-34.99"/>
<polygon fill="black" stroke="black" points="297.81,-60.8 295.45,-71.13 303.73,-64.53 297.81,-60.8"/>
</g>
<!-- web -->
<g id="node3" class="node">
<title>web</title>
<ellipse fill="none" stroke="black" cx="420.21" cy="-90" rx="31.74" ry="18"/>
<text text-anchor="middle" x="420.21" y="-85.33" font-family="Times,serif" font-size="14.00">web</text>
</g>
<!-- web&#45;&gt;outer network -->
<g id="edge2" class="edge">
<title>web&#45;&gt;outer network</title>
<path fill="none" stroke="black" d="M393.04,-68.32C378.57,-57.32 361.1,-44.02 347.95,-34.01"/>
<polygon fill="black" stroke="black" points="390.76,-70.98 400.83,-74.25 394.99,-65.41 390.76,-70.98"/>
</g>
<!-- db -->
<g id="node4" class="node">
<title>db</title>
<ellipse fill="none" stroke="black" cx="196.21" cy="-234" rx="27" ry="18"/>
<text text-anchor="middle" x="196.21" y="-229.32" font-family="Times,serif" font-size="14.00">db</text>
</g>
<!-- db&#45;&gt;proxy -->
<g id="edge3" class="edge">
<title>db&#45;&gt;proxy</title>
<path fill="none" stroke="black" d="M158.24,-229.01C91.77,-220.56 -34.62,-197.09 9.21,-144 38.62,-108.38 175.86,-96.44 244.67,-92.65"/>
<polygon fill="black" stroke="black" points="157.66,-232.47 168.01,-230.19 158.5,-225.52 157.66,-232.47"/>
</g>
<!-- db&#45;&gt;web -->
<g id="edge4" class="edge">
<title>db&#45;&gt;web</title>
<path fill="none" stroke="black" d="M234.22,-230.7C297.87,-225.96 421.69,-212.68 448.21,-180 465.67,-158.49 447.31,-126.01 433.2,-106.81"/>
<polygon fill="black" stroke="black" points="234.31,-227.18 224.58,-231.38 234.8,-234.16 234.31,-227.18"/>
</g>
<!-- premium&#45;forum -->
<g id="node5" class="node">
<title>premium&#45;forum</title>
<ellipse fill="none" stroke="black" cx="108.21" cy="-162" rx="89.61" ry="18"/>
<text text-anchor="middle" x="108.21" y="-157.32" font-family="Times,serif" font-size="14.00">premium&#45;forum</text>
</g>
<!-- db&#45;&gt;premium&#45;forum -->
<g id="edge6" class="edge">
<title>db&#45;&gt;premium&#45;forum</title>
<path fill="none" stroke="black" d="M170.32,-212.4C157.32,-202.06 141.78,-189.7 129.49,-179.92"/>
<polygon fill="black" stroke="black" points="168.06,-215.07 178.06,-218.56 172.42,-209.6 168.06,-215.07"/>
</g>
<!-- open&#45;forum -->
<g id="node6" class="node">
<title>open&#45;forum</title>
<ellipse fill="none" stroke="black" cx="284.21" cy="-162" rx="68.57" ry="18"/>
<text text-anchor="middle" x="284.21" y="-157.32" font-family="Times,serif" font-size="14.00">open&#45;forum</text>
</g>
<!-- db&#45;&gt;open&#45;forum -->
<g id="edge8" class="edge">
<title>db&#45;&gt;open&#45;forum</title>
<path fill="none" stroke="black" d="M221.86,-212.6C235.13,-202.04 251.12,-189.33 263.58,-179.41"/>
<polygon fill="black" stroke="black" points="220.01,-209.6 214.37,-218.56 224.37,-215.07 220.01,-209.6"/>
</g>
<!-- premium&#45;forum&#45;&gt;proxy -->
<g id="edge5" class="edge">
<title>premium&#45;forum&#45;&gt;proxy</title>
<path fill="none" stroke="black" d="M157.59,-141.36C189.01,-128.87 228.63,-113.11 255.11,-102.58"/>
<polygon fill="black" stroke="black" points="156.68,-137.96 148.68,-144.91 159.27,-144.46 156.68,-137.96"/>
</g>
<!-- open&#45;forum&#45;&gt;proxy -->
<g id="edge7" class="edge">
<title>open&#45;forum&#45;&gt;proxy</title>
<path fill="none" stroke="black" d="M284.21,-132.24C284.21,-124.04 284.21,-115.37 284.21,-108.1"/>
<polygon fill="black" stroke="black" points="280.71,-132.18 284.21,-142.18 287.71,-132.18 280.71,-132.18"/>
</g>
<!-- echo -->
<g id="node7" class="node">
<title>echo</title>
<ellipse fill="none" stroke="black" cx="405.21" cy="-162" rx="34.37" ry="18"/>
<text text-anchor="middle" x="405.21" y="-157.32" font-family="Times,serif" font-size="14.00">echo</text>
</g>
<!-- echo&#45;&gt;proxy -->
<g id="edge9" class="edge">
<title>echo&#45;&gt;proxy</title>
<path fill="none" stroke="black" d="M372.89,-142.3C352.4,-130.45 326.36,-115.38 307.81,-104.65"/>
<polygon fill="black" stroke="black" points="371.02,-145.26 381.43,-147.24 374.53,-139.2 371.02,-145.26"/>
</g>
</g>
</svg>
