<?xml version="1.0" encoding="UTF-8" standalone="no"?>
<!DOCTYPE svg PUBLIC "-//W3C//DTD SVG 1.1//EN"
 "http://www.w3.org/Graphics/SVG/1.1/DTD/svg11.dtd">
<!-- Generated by graphviz version 10.0.1 (0)
 -->
<!-- Title: G Pages: 1 -->
<svg width="322pt" height="260pt"
 viewBox="0.00 0.00 322.41 260.00" xmlns="http://www.w3.org/2000/svg" xmlns:xlink="http://www.w3.org/1999/xlink">
<g id="graph0" class="graph" transform="scale(1 1) rotate(0) translate(4 256)">
<title>G</title>
<polygon fill="white" stroke="none" points="-4,4 -4,-256 318.41,-256 318.41,4 -4,4"/>
<!-- outer network -->
<g id="node1" class="node">
<title>outer network</title>
<polygon fill="none" stroke="black" points="310.33,-23.56 208.67,-36 107,-23.56 107.1,-3.44 310.24,-3.44 310.33,-23.56"/>
<text text-anchor="middle" x="208.67" y="-13.33" font-family="Times,serif" font-size="14.00">outer network</text>
</g>
<!-- proxy -->
<g id="node2" class="node">
<title>proxy</title>
<ellipse fill="none" stroke="black" cx="164.67" cy="-90" rx="39.63" ry="18"/>
<text text-anchor="middle" x="164.67" y="-85.33" font-family="Times,serif" font-size="14.00">proxy</text>
</g>
<!-- proxy&#45;&gt;outer network -->
<g id="edge1" class="edge">
<title>proxy&#45;&gt;outer network</title>
<path fill="none" stroke="black" d="M181.16,-62.77C187.02,-53.43 193.45,-43.21 198.62,-34.99"/>
<polygon fill="black" stroke="black" points="178.26,-60.8 175.9,-71.13 184.18,-64.53 178.26,-60.8"/>
</g>
<!-- web -->
<g id="node3" class="node">
<title>web</title>
<ellipse fill="none" stroke="black" cx="282.67" cy="-90" rx="31.74" ry="18"/>
<text text-anchor="middle" x="282.67" y="-85.33" font-family="Times,serif" font-size="14.00">web</text>
</g>
<!-- web&#45;&gt;outer network -->
<g id="edge2" class="edge">
<title>web&#45;&gt;outer network</title>
<path fill="none" stroke="black" d="M258.9,-66.52C247.78,-56 234.82,-43.74 224.85,-34.31"/>
<polygon fill="black" stroke="black" points="256.2,-68.79 265.87,-73.11 261.01,-63.7 256.2,-68.79"/>
</g>
<!-- db -->
<g id="node4" class="node">
<title>db</title>
<ellipse fill="none" stroke="black" cx="106.67" cy="-234" rx="27" ry="18"/>
<text text-anchor="middle" x="106.67" y="-229.32" font-family="Times,serif" font-size="14.00">db</text>
</g>
<!-- db&#45;&gt;proxy -->
<g id="edge3" class="edge">
<title>db&#45;&gt;proxy</title>
<path fill="none" stroke="black" d="M70.44,-224.08C47.81,-216.43 20.45,-202.9 6.67,-180 -1.58,-166.29 -2.68,-156.99 6.67,-144 33.44,-106.77 87.63,-95.33 125.02,-92.01"/>
<polygon fill="black" stroke="black" points="69.38,-227.41 79.97,-227.02 71.45,-220.72 69.38,-227.41"/>
</g>
<!-- db&#45;&gt;web -->
<g id="edge4" class="edge">
<title>db&#45;&gt;web</title>
<path fill="none" stroke="black" d="M144.1,-227.76C193.32,-220.01 275.67,-203.8 293.67,-180 309.53,-159.01 299.66,-126.95 291.11,-107.58"/>
<polygon fill="black" stroke="black" points="143.81,-224.26 134.45,-229.23 144.86,-231.18 143.81,-224.26"/>
</g>
<!-- premium_forum -->
<g id="node5" class="node">
<title>premium_forum</title>
<ellipse fill="none" stroke="black" cx="106.67" cy="-162" rx="91.19" ry="18"/>
<text text-anchor="middle" x="106.67" y="-157.32" font-family="Times,serif" font-size="14.00">premium_forum</text>
</g>
<!-- db&#45;&gt;premium_forum -->
<g id="edge6" class="edge">
<title>db&#45;&gt;premium_forum</title>
<path fill="none" stroke="black" d="M106.67,-204.24C106.67,-196.04 106.67,-187.37 106.67,-180.1"/>
<polygon fill="black" stroke="black" points="103.17,-204.18 106.67,-214.18 110.17,-204.18 103.17,-204.18"/>
</g>
<!-- premium_forum&#45;&gt;proxy -->
<g id="edge5" class="edge">
<title>premium_forum&#45;&gt;proxy</title>
<path fill="none" stroke="black" d="M127.84,-135.44C135.63,-126.05 144.22,-115.67 151.15,-107.31"/>
<polygon fill="black" stroke="black" points="125.36,-132.96 121.67,-142.89 130.75,-137.42 125.36,-132.96"/>
</g>
<!-- echo -->
<g id="node6" class="node">
<title>echo</title>
<ellipse fill="none" stroke="black" cx="250.67" cy="-162" rx="34.37" ry="18"/>
<text text-anchor="middle" x="250.67" y="-157.32" font-family="Times,serif" font-size="14.00">echo</text>
</g>
<!-- echo&#45;&gt;proxy -->
<g id="edge7" class="edge">
<title>echo&#45;&gt;proxy</title>
<path fill="none" stroke="black" d="M224.17,-139.43C210.95,-128.68 195.29,-115.93 183.35,-106.21"/>
<polygon fill="black" stroke="black" points="221.71,-141.94 231.67,-145.54 226.13,-136.51 221.71,-141.94"/>
</g>
</g>
</svg>
